/* XPM */
static char * hide_active_xpm[] = {
"14 27 6 1",
" 	c None",
".	c #FFCB00",
"+	c #B78200",
"@	c #FFFF3F",
"#	c #FFEC21",
"$	c #EAB500",
"              ",
"              ",
"              ",
"              ",
"              ",
"              ",
"              ",
"..............",
"..............",
"..............",
"..............",
"++++++++++++++",
"+@@@@@@@@@@@@@",
"+@.#..$$$$$$+@",
"+@+++++++++++@",
"+@@@@@@@@@@@@@",
"..............",
"..............",
"..............",
"..............",
"              ",
"              ",
"              ",
"              ",
"              ",
"              ",
"              "};
