/* XPM */
static char * hide_prelight_xpm[] = {
"14 27 4 1",
" 	c None",
".	c #FFCB00",
"+	c #B78200",
"@	c #FFFF3F",
"              ",
"              ",
"              ",
"              ",
"              ",
"              ",
"              ",
"..............",
"..............",
"..............",
"..............",
"++++++++++++++",
"+@@@@@@@@@@@@@",
"+@+++++++++++@",
"+@+++++++++++@",
"+@@@@@@@@@@@@@",
"..............",
"..............",
"..............",
"..............",
"              ",
"              ",
"              ",
"              ",
"              ",
"              ",
"              "};
