/* XPM */
static char * maximize_pressed_xpm[] = {
"14 27 67 1",
" 	c None",
".	c #B78200",
"+	c #B88300",
"@	c #B98400",
"#	c #BA8500",
"$	c #BC8A04",
"%	c #C69D0E",
"&	c #D8A300",
"*	c #E0AB00",
"=	c #DFAA00",
"-	c #E8B501",
";	c #F2C70B",
">	c #F5D718",
",	c #FFFF43",
"'	c #F1BC00",
")	c #EEB900",
"!	c #FFCF01",
"~	c #FFD80C",
"{	c #FFEC22",
"]	c #FFFE3E",
"^	c #B68100",
"/	c #BA8703",
"(	c #BB8803",
"_	c #FDC900",
":	c #FFCD02",
"<	c #FFDC11",
"[	c #FFEF26",
"}	c #C18C00",
"|	c #C69100",
"1	c #C69403",
"2	c #C18B00",
"3	c #F7EF35",
"4	c #FFFF44",
"5	c #FFE71C",
"6	c #FFE51A",
"7	c #FFF128",
"8	c #F7C200",
"9	c #FFD403",
"0	c #FFE312",
"a	c #FFDE0D",
"b	c #FFF835",
"c	c #FFFF3F",
"d	c #FFEF24",
"e	c #FFF631",
"f	c #FFFF3E",
"g	c #FFCD00",
"h	c #FFDB10",
"i	c #FFE71B",
"j	c #FFFC3A",
"k	c #FFF836",
"l	c #FFCB00",
"m	c #FFCF04",
"n	c #FFDF14",
"o	c #FFDE13",
"p	c #FFCC01",
"q	c #FFD50A",
"r	c #FFEB20",
"s	c #FFFB39",
"t	c #FFD005",
"u	c #FFEB1F",
"v	c #FFF025",
"w	c #FFED23",
"x	c #FFEF25",
"y	c #FFF632",
"z	c #FFFE3D",
"A	c #FFF42E",
"B	c #FFFD3C",
"              ",
"              ",
"              ",
"              ",
"              ",
"              ",
".+@@@#$%      ",
"+&*=-;>,      ",
"@*')!~{]...^/(",
"@=)_:<[]}|1234",
"@-!:567]890abc",
"#;~<6defg:hijc",
"$>{[7ekclmnojc",
"%,]]]fccp5qrsc",
"  .}8glprtdusc",
"  .|9:m5tvrwjc",
"  .10hnqdrxyzc",
"  ^2aioruwyABc",
"  /3bjjssjzBcc",
"  (4cccccccccc",
"              ",
"              ",
"              ",
"              ",
"              ",
"              ",
"              "};
