/* XPM */
static char * maximize_active_xpm[] = {
"14 27 52 1",
" 	c None",
".	c #BB8803",
"+	c #FFFC3A",
"@	c #FFFD3B",
"#	c #FFEA1E",
"$	c #FFEA1F",
"%	c #FFEB20",
"&	c #F7EF35",
"*	c #FBF83C",
"=	c #FFEC21",
"-	c #FFEF24",
";	c #FFD60B",
">	c #FFCF04",
",	c #BB8903",
"'	c #FFDC11",
")	c #FFD207",
"!	c #FFCD00",
"~	c #FFFF3D",
"{	c #FFFF3E",
"]	c #FFFF39",
"^	c #FFFF43",
"/	c #FDC900",
"(	c #F0BB00",
"_	c #FFDE13",
":	c #FFE71B",
"<	c #FFDE0D",
"[	c #BC8200",
"}	c #FBF83B",
"|	c #E8B300",
"1	c #FFD50A",
"2	c #FFDF14",
"3	c #FFDB10",
"4	c #FFE312",
"5	c #C18B00",
"6	c #FFE71C",
"7	c #FFCD02",
"8	c #FFD403",
"9	c #C18800",
"0	c #FFCC01",
"a	c #FFCB00",
"b	c #F7C200",
"c	c #BC8300",
"d	c #FAC600",
"e	c #E9B300",
"f	c #EDB800",
"g	c #BC8400",
"h	c #F6C200",
"i	c #EEB900",
"j	c #F1BC00",
"k	c #BD8400",
"l	c #AF7200",
"m	c #FFFF3F",
"              ",
"              ",
"              ",
"              ",
"              ",
"              ",
"........      ",
".+@#$%&*      ",
".@=-;>.*...,,.",
".#-')!.*~{{]&^",
".$;)/(.*%_:<[}",
".%>!(|.*12345*",
".&.....*6>789*",
".*******0a!bc*",
"  .~%160adefg*",
"  .{_2>ad(hfg*",
"  .{:37!eh|ig*",
"  ,]<48bffijk*",
"  ,&[59cgggkl*",
"  .^}********m",
"              ",
"              ",
"              ",
"              ",
"              ",
"              ",
"              "};
