/* XPM */
static char * maximize_inactive_xpm[] = {
"14 27 38 1",
" 	c None",
".	c #898989",
"+	c #EFEFEF",
"@	c #E0E0E0",
"#	c #E1E1E1",
"$	c #E3E3E3",
"%	c #EBEBEB",
"&	c #E4E4E4",
"*	c #D0D0D0",
"=	c #CBCBCB",
"-	c #8A8A8A",
";	c #D5D5D5",
">	c #CDCDCD",
",	c #C9C9C9",
"'	c #F1F1F1",
")	c #C6C6C6",
"!	c #B9B9B9",
"~	c #D6D6D6",
"{	c #DDDDDD",
"]	c #858585",
"^	c #B1B1B1",
"/	c #CFCFCF",
"(	c #D7D7D7",
"_	c #D4D4D4",
":	c #DADADA",
"<	c #8C8C8C",
"[	c #CECECE",
"}	c #C8C8C8",
"|	c #C7C7C7",
"1	c #BFBFBF",
"2	c #868686",
"3	c #C3C3C3",
"4	c #B2B2B2",
"5	c #B6B6B6",
"6	c #B7B7B7",
"7	c #BABABA",
"8	c #878787",
"9	c #777777",
"              ",
"              ",
"              ",
"              ",
"              ",
"              ",
"........      ",
".++@@#$%      ",
".+#&*=.%...--.",
".@&;>,.%''''$'",
".@*>)!.%#~{~]%",
".#=,!^.%/(_:<%",
".$.....%{=,[-%",
".%%%%%%%}|,12%",
"  .'#/{}|3452%",
"  .'~(=|3!152%",
"  .'{_,,41^62%",
"  -'~:[155678%",
"  -$]<-222289%",
"  .'%%%%%%%%%'",
"              ",
"              ",
"              ",
"              ",
"              ",
"              ",
"              "};
