/* XPM */
static char * maximize_prelight_xpm[] = {
"14 27 43 1",
" 	c None",
".	c #B78200",
"+	c #FFFF43",
"@	c #FFFF37",
"#	c #FFFD2E",
"$	c #FFFB2C",
"%	c #FFF828",
"&	c #F4D618",
"*	c #FBF63A",
"=	c #F1E531",
"-	c #FFE71C",
";	c #FFCD02",
">	c #FFCF01",
",	c #F0E431",
"'	c #FFFF3D",
")	c #FFFF3E",
"!	c #FFFF39",
"~	c #F7EF35",
"{	c #FDC900",
"]	c #EEB900",
"^	c #FBF83B",
"/	c #F2BD00",
"(	c #FFD50A",
"_	c #FFDF14",
":	c #FFDB10",
"<	c #FFE312",
"[	c #FBF83C",
"}	c #EEE130",
"|	c #FFCF04",
"1	c #FFD403",
"2	c #FBF93C",
"3	c #FFCC01",
"4	c #FFCB00",
"5	c #FFCD00",
"6	c #F7C200",
"7	c #FAC600",
"8	c #E9B300",
"9	c #EDB800",
"0	c #F0BB00",
"a	c #F6C200",
"b	c #E8B300",
"c	c #F1BC00",
"d	c #FFFF3F",
"              ",
"              ",
"              ",
"              ",
"              ",
"              ",
"........      ",
".+@#$%&*      ",
".@.....=......",
".#.-;>.,'))!~+",
".$.;{].,.....^",
".%.>]/.,(_:<.[",
".&.....}-|;1.[",
".*=,,,}23456.[",
"  .'.(-34789.[",
"  .)._|470a9.[",
"  .).:;58ab].[",
"  .!.<1699]c.[",
"  .~.........[",
"  .+^[[[[[[[[d",
"              ",
"              ",
"              ",
"              ",
"              ",
"              ",
"              "};
