/* XPM */
static char * shade_toggled_inactive_xpm[] = {
"14 27 5 1",
" 	g None",
".	g #848484",
"+	g #F1F1F1",
"@	g #C7C7C7",
"#	g #B3B3B3",
"              ",
"              ",
"              ",
"              ",
"              ",
"              ",
"..............",
".+++++++++++++",
".+@@@@@@@@@@.+",
".+@@@@@@@@@@.+",
".+@..@@@@..@.+",
".+@.#.@@.#.@.+",
".+@.##..##.@.+",
".+@@.####.@@.+",
".+@@@.##.@@@.+",
".+@@@@..@@@@.+",
".+@@@@@@@@@@.+",
".+@@@@@@@@@@.+",
".+...........+",
".+++++++++++++",
"              ",
"              ",
"              ",
"              ",
"              ",
"              ",
"              "};
