/* XPM */
static char * stick_inactive_xpm[] = {
"14 27 6 1",
" 	g None",
".	g #848484",
"+	g #F1F1F1",
"@	g #C7C7C7",
"#	g #B8B8B8",
"$	g #B3B3B3",
"              ",
"              ",
"              ",
"              ",
"              ",
"              ",
"..............",
".+++++++++++++",
".+@@@@@@@@@@.+",
".+@@@@.@@@.@.+",
".+@@@@.....@.+",
".+#....@@..@.+",
".+.@@@.@@..@.+",
".+#....$$..@.+",
".+@###.....@.+",
".+@@@@.###.@.+",
".+@@@@#@@@#@.+",
".+@@@@@@@@@@.+",
".+...........+",
".+++++++++++++",
"              ",
"              ",
"              ",
"              ",
"              ",
"              ",
"              "};
