/* XPM */
static char * stick_prelight_xpm[] = {
"14 27 5 1",
" 	c None",
".	c #B78200",
"+	c #FFFF3F",
"@	c #FFCB00",
"#	c #EFBA00",
"              ",
"              ",
"              ",
"              ",
"              ",
"              ",
"..............",
".+++++++++++++",
".+@@@@@@@@@@.+",
".+@@@@.@@@.@.+",
".+@@@@.....@.+",
".+#........@.+",
".+.........@.+",
".+#........@.+",
".+@###.....@.+",
".+@@@@.###.@.+",
".+@@@@#@@@#@.+",
".+@@@@@@@@@@.+",
".+...........+",
".+++++++++++++",
"              ",
"              ",
"              ",
"              ",
"              ",
"              ",
"              "};
