/* XPM */
static char *bottom_right_inactive[] = {
/* columns rows colors chars-per-pixel */
"25 25 5 1 ",
"  c black",
". c #080808",
"X c #585858",
"o c #7F7F7F",
"O c None",
/* pixels */
"OOOOOOOOOOOOOOOOOOOOOoX. ",
"OOOOOOOOOOOOOOOOOOOOOoX. ",
"OOOOOOOOOOOOOOOOOOOOOoX. ",
"OOOOOOOOOOOOOOOOOOOOOoX. ",
"OOOOOOOOOOOOOOOOOOOOOoX. ",
"OOOOOOOOOOOOOOOOOOOOOoX. ",
"OOOOOOOOOOOOOOOOOOOOOoX. ",
"OOOOOOOOOOOOOOOOOOOOOoX. ",
"OOOOOOOOOOOOOOOOOOOOOoX. ",
"OOOOOOOOOOOOOOOOOOOOOoX. ",
"OOOOOOOOOOOOOOOOOOOOOoX. ",
"OOOOOOOOOOOOOOOOOOOOOoX. ",
"OOOOOOOOOOOOOOOOOOOOOoX. ",
"OOOOOOOOOOOOOOOOOOOOOoX. ",
"OOOOOOOOOOOOOOOOOOOOOoX. ",
"OOOOOOOOOOOOOOOOOOOOOoX. ",
"OOOOOOOOOOOOOOOOOOOOOoX. ",
"OOOOOOOOOOOOOOOOOOOOOoX. ",
"OOOOOOOOOOOOOOOOOOOOOoX. ",
"OOOOOOOOOOOOOOOOOOOOOoX. ",
"OOOOOOOOOOOOOOOOOOOOOoX. ",
"ooooooooooooooooooooooX. ",
"XXXXXXXXXXXXXXXXXXXXXXX. ",
"........................ ",
"                         "
};
