/* XPM */
static char *close_active[] = {
/* columns rows colors chars-per-pixel */
"14 27 6 1 ",
"  c #040404",
". c #333333",
"X c #474747",
"o c #616161",
"O c #717171",
"+ c None",
/* pixels */
"++++++++++++++",
"++++++++++++++",
"++++++++++++++",
"++++++++++++++",
"++++++++++++++",
"++++++++++++++",
"              ",
" OOOOOOOOOOOOO",
" OOoOooooooX O",
" OoOooooXoXo O",
" OOooooXoXoX O",
" OooooXoXXXX O",
" OoooXoXXXX. O",
" OooXoXXX... O",
" OoXoXXX.X.. O",
" OooXXX.X... O",
" OoXoXX..... O",
" OXoXX...... O",
" O           O",
" OOOOOOOOOOOOO",
"++++++++++++++",
"++++++++++++++",
"++++++++++++++",
"++++++++++++++",
"++++++++++++++",
"++++++++++++++",
"++++++++++++++"
};
