/* XPM */
static char *close_prelight[] = {
/* columns rows colors chars-per-pixel */
"14 27 6 1 ",
"  c #040404",
". c #333333",
"X c #474747",
"o c #616161",
"O c #717171",
"+ c None",
/* pixels */
"++++++++++++++",
"++++++++++++++",
"++++++++++++++",
"++++++++++++++",
"++++++++++++++",
"++++++++++++++",
"              ",
" OOOOOOOOOOOOO",
" O  Oooooo   O",
" O   oooX    O",
" OO   oX   X O",
" Ooo      XX O",
" Oooo    XX. O",
" OooX    ... O",
" OoX      .. O",
" Oo   X.   . O",
" O   XX..    O",
" O  XX....   O",
" O           O",
" OOOOOOOOOOOOO",
"++++++++++++++",
"++++++++++++++",
"++++++++++++++",
"++++++++++++++",
"++++++++++++++",
"++++++++++++++",
"++++++++++++++"
};
