/* XPM */
static char *hide_inactive[] = {
/* columns rows colors chars-per-pixel */
"14 27 7 1 ",
"  c #040404",
". c #333333",
"X c #474747",
"o c #616161",
"O c #686868",
"+ c #717171",
"@ c None",
/* pixels */
"@@@@@@@@@@@@@@",
"@@@@@@@@@@@@@@",
"@@@@@@@@@@@@@@",
"@@@@@@@@@@@@@@",
"@@@@@@@@@@@@@@",
"@@@@@@@@@@@@@@",
"@@@@@@@@@@@@@@",
"OOOOOOOOOOOOOO",
"OOOOOOOOOOOOOO",
"OOOOOOOOOOOOOO",
"OOOOOOOOOOOOOO",
"              ",
" +++++++++++++",
" +XoXX...... +",
" +           +",
" +++++++++++++",
"OOOOOOOOOOOOOO",
"OOOOOOOOOOOOOO",
"OOOOOOOOOOOOOO",
"OOOOOOOOOOOOOO",
"@@@@@@@@@@@@@@",
"@@@@@@@@@@@@@@",
"@@@@@@@@@@@@@@",
"@@@@@@@@@@@@@@",
"@@@@@@@@@@@@@@",
"@@@@@@@@@@@@@@",
"@@@@@@@@@@@@@@"
};
