/* XPM */
static char *hide_pressed[] = {
/* columns rows colors chars-per-pixel */
"14 27 6 1 ",
"  c #040404",
". c #333333",
"X c #474747",
"o c #616161",
"O c #717171",
"+ c None",
/* pixels */
"++++++++++++++",
"++++++++++++++",
"++++++++++++++",
"++++++++++++++",
"++++++++++++++",
"++++++++++++++",
"++++++++++++++",
"XXXXXXXXXXXXXX",
"XXXXXXXXXXXXXX",
"XXXXXXXXXXXXXX",
"XXXXXXXXXXXXXX",
"              ",
"            OO",
"  ......XXoXOO",
" OOOOOOOOOOOOO",
" OOOOOOOOOOOOO",
"XXXXXXXXXXXXXX",
"XXXXXXXXXXXXXX",
"XXXXXXXXXXXXXX",
"XXXXXXXXXXXXXX",
"++++++++++++++",
"++++++++++++++",
"++++++++++++++",
"++++++++++++++",
"++++++++++++++",
"++++++++++++++",
"++++++++++++++"
};
