/* XPM */
static char *left_active[] = {
/* columns rows colors chars-per-pixel */
"4 128 4 1 ",
"  c #080808",
". c #181818",
"X c #585858",
"o c #7F7F7F",
/* pixels */
".oX ",
".oX ",
".oX ",
".oX ",
".oX ",
".oX ",
".oX ",
".oX ",
".oX ",
".oX ",
".oX ",
".oX ",
".oX ",
".oX ",
".oX ",
".oX ",
".oX ",
".oX ",
".oX ",
".oX ",
".oX ",
".oX ",
".oX ",
".oX ",
".oX ",
".oX ",
".oX ",
".oX ",
".oX ",
".oX ",
".oX ",
".oX ",
".oX ",
".oX ",
".oX ",
".oX ",
".oX ",
".oX ",
".oX ",
".oX ",
".oX ",
".oX ",
".oX ",
".oX ",
".oX ",
".oX ",
".oX ",
".oX ",
".oX ",
".oX ",
".oX ",
".oX ",
".oX ",
".oX ",
".oX ",
".oX ",
".oX ",
".oX ",
".oX ",
".oX ",
".oX ",
".oX ",
".oX ",
".oX ",
".oX ",
".oX ",
".oX ",
".oX ",
".oX ",
".oX ",
".oX ",
".oX ",
".oX ",
".oX ",
".oX ",
".oX ",
".oX ",
".oX ",
".oX ",
".oX ",
".oX ",
".oX ",
".oX ",
".oX ",
".oX ",
".oX ",
".oX ",
".oX ",
".oX ",
".oX ",
".oX ",
".oX ",
".oX ",
".oX ",
".oX ",
".oX ",
".oX ",
".oX ",
".oX ",
".oX ",
".oX ",
".oX ",
".oX ",
".oX ",
".oX ",
".oX ",
".oX ",
".oX ",
".oX ",
".oX ",
".oX ",
".oX ",
".oX ",
".oX ",
".oX ",
".oX ",
".oX ",
".oX ",
".oX ",
".oX ",
".oX ",
".oX ",
".oX ",
".oX ",
".oX ",
".oX ",
".oX ",
".oX "
};
