/* XPM */
static char *maximize_pressed[] = {
/* columns rows colors chars-per-pixel */
"14 27 52 1 ",
"  c #030303",
". c #040404",
"X c #050505",
"o c #060606",
"O c #070707",
"+ c #080808",
"@ c #090909",
"# c #0B0B0B",
"$ c #0C0C0C",
"% c #0D0D0D",
"& c #121212",
"* c #141414",
"= c #1B1B1B",
"- c #232323",
"; c #292929",
": c #2A2A2A",
"> c #333333",
", c #373737",
"< c #3A3A3A",
"1 c #3F3F3F",
"2 c #434343",
"3 c #464646",
"4 c #474747",
"5 c #484848",
"6 c #494949",
"7 c #4A4A4A",
"8 c #4B4B4B",
"9 c #4E4E4E",
"0 c #4F4F4F",
"q c #505050",
"w c #525252",
"e c #545454",
"r c #555555",
"t c #565656",
"y c #575757",
"u c #5A5A5A",
"i c #5C5C5C",
"p c #5D5D5D",
"a c #616161",
"s c #626262",
"d c #636363",
"f c #646464",
"g c #656565",
"h c #686868",
"j c #6A6A6A",
"k c #6B6B6B",
"l c #6E6E6E",
"z c #6F6F6F",
"x c #707070",
"c c #717171",
"v c #727272",
"b c None",
/* pixels */
"bbbbbbbbbbbbbb",
"bbbbbbbbbbbbbb",
"bbbbbbbbbbbbbb",
"bbbbbbbbbbbbbb",
"bbbbbbbbbbbbbb",
"bbbbbbbbbbbbbb",
".XoooO#=bbbbbb",
"X-:;>2qvbbbbbb",
"o:<,7wax... +@",
"o;,36rfx%&*$dv",
"o>76pigx19utkc",
"O2wrifjc66epzc",
"#qafgjkc47ytzc",
"=vxxxccc5p0alc",
"bb.%1645a8falc",
"bb.&967p8gaszc",
"bb.*uey0fafjxc",
"bb $tptaasjhzc",
"bb+dkzzllzxzcc",
"bb@vcccccccccc",
"bbbbbbbbbbbbbb",
"bbbbbbbbbbbbbb",
"bbbbbbbbbbbbbb",
"bbbbbbbbbbbbbb",
"bbbbbbbbbbbbbb",
"bbbbbbbbbbbbbb",
"bbbbbbbbbbbbbb"
};
