/* XPM */
static char *maximize_prelight[] = {
/* columns rows colors chars-per-pixel */
"14 27 32 1 ",
"  c #040404",
". c #313131",
"X c #323232",
"o c #363636",
"O c #373737",
"+ c #393939",
"@ c #3A3A3A",
"# c #3B3B3B",
"$ c #3F3F3F",
"% c #434343",
"& c #464646",
"* c #474747",
"= c #484848",
"- c #494949",
"; c #4A4A4A",
": c #4B4B4B",
"> c #4E4E4E",
", c #4F4F4F",
"< c #545454",
"1 c #575757",
"2 c #5A5A5A",
"3 c #5B5B5B",
"4 c #5D5D5D",
"5 c #636363",
"6 c #696969",
"7 c #6A6A6A",
"8 c #6B6B6B",
"9 c #6C6C6C",
"0 c #6D6D6D",
"q c #6E6E6E",
"w c #717171",
"e c None",
/* pixels */
"eeeeeeeeeeeeee",
"eeeeeeeeeeeeee",
"eeeeeeeeeeeeee",
"eeeeeeeeeeeeee",
"eeeeeeeeeeeeee",
"eeeeeeeeeeeeee",
"        eeeeee",
" wwq07,6eeeeee",
" w     3      ",
" q 4-; 2wwww5w",
" 0 -&O 2     8",
" 7 ;O# 2,1<2 8",
" ,     14:-> 8",
" 6322219=*-$ 8",
"ee w ,4=*%Xo 8",
"ee w 1:*%+$o 8",
"ee w <--X$.O 8",
"ee w 2>$ooO@ 8",
"ee 5         8",
"ee w888888888w",
"eeeeeeeeeeeeee",
"eeeeeeeeeeeeee",
"eeeeeeeeeeeeee",
"eeeeeeeeeeeeee",
"eeeeeeeeeeeeee",
"eeeeeeeeeeeeee",
"eeeeeeeeeeeeee"
};
