/* XPM */
static char *menu_pressed[] = {
/* columns rows colors chars-per-pixel */
"14 27 6 1 ",
"  c #040404",
". c #333333",
"X c #343434",
"o c #474747",
"O c #717171",
"+ c None",
/* pixels */
"++++++++++++++",
"++++++++++++++",
"++++++++++++++",
"++++++++++++++",
"++++++++++++++",
"++++++++++++++",
"              ",
"            OO",
"  ooooooooooOO",
"  o        oOO",
"  oXXXXXXXXoOO",
"  o        oOO",
"  o ...... oOO",
"  oX  ..  XoOO",
"  ooX    XooOO",
"  oooX  XoooOO",
"  ooooXXooooOO",
"  ooooooooooOO",
" OOOOOOOOOOOOO",
" OOOOOOOOOOOOO",
"++++++++++++++",
"++++++++++++++",
"++++++++++++++",
"++++++++++++++",
"++++++++++++++",
"++++++++++++++",
"++++++++++++++"
};
