/* XPM */
static char *stick_toggled_active[] = {
/* columns rows colors chars-per-pixel */
"14 27 6 1 ",
"  c #040404",
". c #333333",
"X c #383838",
"o c #474747",
"O c #717171",
"+ c None",
/* pixels */
"++++++++++++++",
"++++++++++++++",
"++++++++++++++",
"++++++++++++++",
"++++++++++++++",
"++++++++++++++",
"              ",
" OOOOOOOOOOOOO",
" Ooooooooooo O",
" Oo       Xo O",
" Ooo     Xoo O",
" Ooo oo. Xoo O",
" Ooo oo. Xoo O",
" Oo       Xo O",
" Oooo o Xooo O",
" Oooo o Xooo O",
" Oooo o Xooo O",
" OoooX Xoooo O",
" O           O",
" OOOOOOOOOOOOO",
"++++++++++++++",
"++++++++++++++",
"++++++++++++++",
"++++++++++++++",
"++++++++++++++",
"++++++++++++++",
"++++++++++++++"
};
