/* XPM */
static char *stick_pressed[] = {
/* columns rows colors chars-per-pixel */
"14 27 5 1 ",
"  c #040404",
". c #333333",
"X c #474747",
"o c #717171",
"O c None",
/* pixels */
"OOOOOOOOOOOOOO",
"OOOOOOOOOOOOOO",
"OOOOOOOOOOOOOO",
"OOOOOOOOOOOOOO",
"OOOOOOOOOOOOOO",
"OOOOOOOOOOOOOO",
"              ",
"            oo",
"  XXXXXXXXXXoo",
"  XXXX XXX Xoo",
"  XXXX     Xoo",
"  .    XX  Xoo",
"   XXX XX  Xoo",
"  .    ..  Xoo",
"  X...     Xoo",
"  XXXX ... Xoo",
"  XXXX.XXX.Xoo",
"  XXXXXXXXXXoo",
" ooooooooooooo",
" ooooooooooooo",
"OOOOOOOOOOOOOO",
"OOOOOOOOOOOOOO",
"OOOOOOOOOOOOOO",
"OOOOOOOOOOOOOO",
"OOOOOOOOOOOOOO",
"OOOOOOOOOOOOOO",
"OOOOOOOOOOOOOO"
};
