/* XPM */
static char *stick_toggled_pressed[] = {
/* columns rows colors chars-per-pixel */
"14 27 5 1 ",
"  c #040404",
". c #333333",
"X c #474747",
"o c #717171",
"O c None",
/* pixels */
"OOOOOOOOOOOOOO",
"OOOOOOOOOOOOOO",
"OOOOOOOOOOOOOO",
"OOOOOOOOOOOOOO",
"OOOOOOOOOOOOOO",
"OOOOOOOOOOOOOO",
"              ",
"            oo",
"  XXXXXXXXXXoo",
"  X       .Xoo",
"  XX     .XXoo",
"  XX XX. .XXoo",
"  XX XX. .XXoo",
"  X       .Xoo",
"  XXX X .XXXoo",
"  XXX X .XXXoo",
"  XXX X .XXXoo",
"  XXX. .XXXXoo",
" ooooooooooooo",
" ooooooooooooo",
"OOOOOOOOOOOOOO",
"OOOOOOOOOOOOOO",
"OOOOOOOOOOOOOO",
"OOOOOOOOOOOOOO",
"OOOOOOOOOOOOOO",
"OOOOOOOOOOOOOO",
"OOOOOOOOOOOOOO"
};
