/* XPM */
static char *title_4_active[] = {
/* columns rows colors chars-per-pixel */
"16 27 7 1 ",
"  c black",
". c #080808",
"X c #181818",
"o c #474747",
"O c #585858",
"+ c #727272",
"@ c #7F7F7F",
/* pixels */
"XXXXXXXXXXXXXXXX",
"+++++++++++++++ ",
"oooooooooooooo  ",
"oooooooooooooo  ",
"oooooooooooooo  ",
"oooooooooooooo  ",
"oooooooooooooo  ",
"oooooooooooooo  ",
"oooooooooooooo  ",
"oooooooooooooo  ",
"oooooooooooooo  ",
"oooooooooooooo  ",
"oooooooooooooo  ",
"oooooooooooooo  ",
"oooooooooooooo  ",
"oooooooooooooo  ",
"oooooooooooooo  ",
"oooooooooooooo  ",
"oooooooooooooo  ",
"oooooooooooooo  ",
"oooooooooooooo  ",
"oooooooooooooo  ",
"oooooooooooooo  ",
"oooooooooooooo  ",
"OOOOOOOOOOOOOO@@",
"OOOOOOOOOOOOOOOO",
"................"
};
