/* XPM */
static char *top_left_inactive[] = {
/* columns rows colors chars-per-pixel */
"25 48 4 1 ",
"  c #181818",
". c #686868",
"X c #7F7F7F",
"o c None",
/* pixels */
"                         ",
" XXXXXXXXXXXXXXXXXXXXXXXX",
" X.......................",
" X.......................",
" X.......................",
" X.......................",
" X.......................",
" X.......................",
" X.......................",
" X.......................",
" X.......................",
" X.......................",
" X.......................",
" X.......................",
" X.......................",
" X.......................",
" X.......................",
" X.......................",
" X.......................",
" X.......................",
" X.......................",
" X.......................",
" X.......................",
" X.......................",
" X.......................",
" X.......................",
" X.                      ",
" X. ooooooooooooooooooooo",
" X. ooooooooooooooooooooo",
" X. ooooooooooooooooooooo",
" X. ooooooooooooooooooooo",
" X. ooooooooooooooooooooo",
" X. ooooooooooooooooooooo",
" X. ooooooooooooooooooooo",
" X. ooooooooooooooooooooo",
" X. ooooooooooooooooooooo",
" X. ooooooooooooooooooooo",
" X. ooooooooooooooooooooo",
" X. ooooooooooooooooooooo",
" X. ooooooooooooooooooooo",
" X. ooooooooooooooooooooo",
" X. ooooooooooooooooooooo",
" X. ooooooooooooooooooooo",
" X. ooooooooooooooooooooo",
" X. ooooooooooooooooooooo",
" X. ooooooooooooooooooooo",
" X. ooooooooooooooooooooo",
" X. ooooooooooooooooooooo"
};
